<svg width="20" height="16" viewBox="0 0 20 16" fill="none" xmlns="http://www.w3.org/2000/svg">
<path d="M18.2142 15.7143C18.6637 15.7143 19.0533 15.5659 19.3844 15.2728L13.7181 9.60626C13.5822 9.70361 13.4504 9.79828 13.3259 9.88829C12.9019 10.2007 12.5577 10.4445 12.2935 10.6192C12.0292 10.7943 11.6777 10.9728 11.2388 11.155C10.7997 11.3374 10.3905 11.4283 10.011 11.4283H9.9999H9.98879C9.60923 11.4283 9.20011 11.3374 8.761 11.155C8.32189 10.9728 7.97032 10.7943 7.70634 10.6192C7.44211 10.4445 7.09813 10.2007 6.67387 9.88829C6.55564 9.80162 6.42452 9.70652 6.28276 9.60474L0.615356 15.2728C0.946478 15.5659 1.33628 15.7143 1.78581 15.7143H18.2142Z" fill="white"/>
<path d="M1.12735 6.038C0.703347 5.75532 0.327345 5.43157 0 5.06689V13.6881L4.99427 8.6938C3.99513 7.99626 2.7078 7.11201 1.12735 6.038Z" fill="white"/>
<path d="M18.8839 6.038C17.3637 7.06691 16.0717 7.95269 15.0077 8.69579L20 13.6883V5.06689C19.6799 5.42423 19.3079 5.74777 18.8839 6.038Z" fill="white"/>
<path d="M18.2142 0H1.78591C1.21277 0 0.772135 0.193538 0.463454 0.580216C0.154519 0.967075 0.000305176 1.45088 0.000305176 2.0311C0.000305176 2.49977 0.204955 3.00758 0.614073 3.55468C1.02319 4.10156 1.45852 4.53112 1.91986 4.84358C2.17276 5.02227 2.93544 5.55248 4.2079 6.43405C4.89479 6.91005 5.49215 7.32494 6.00548 7.68297C6.44303 7.98784 6.82037 8.25185 7.13192 8.47095C7.16769 8.49605 7.22394 8.53628 7.29859 8.58966C7.37902 8.64743 7.4808 8.72074 7.60637 8.81141C7.84816 8.98628 8.04904 9.12764 8.20902 9.23563C8.36879 9.34366 8.56237 9.46432 8.78946 9.59831C9.01636 9.73211 9.23038 9.83273 9.43125 9.89965C9.63216 9.96654 9.81815 10.0001 9.98925 10.0001H10.0004H10.0115C10.1825 10.0001 10.3686 9.96654 10.5695 9.89965C10.7703 9.83273 10.9842 9.73233 11.2113 9.59831C11.4381 9.46432 11.6315 9.3434 11.7917 9.23563C11.9517 9.12764 12.1526 8.98632 12.3944 8.81141C12.5197 8.72074 12.6215 8.64739 12.7019 8.58984C12.7766 8.53624 12.8328 8.49626 12.8688 8.47095C13.1115 8.30207 13.4898 8.03914 13.9983 7.68605C14.9235 7.04316 16.2862 6.09693 18.092 4.84358C18.6351 4.46424 19.0889 4.00646 19.4536 3.47091C19.8176 2.93536 20.0001 2.37359 20.0001 1.78578C20.0001 1.29467 19.8231 0.874445 19.47 0.524442C19.1165 0.174875 18.6979 0 18.2142 0Z" fill="white"/>
</svg>
