<svg width="64" height="64" viewBox="0 0 64 64" fill="none" xmlns="http://www.w3.org/2000/svg">
<path d="M32 45.3335C30.896 45.3335 30 44.4375 30 43.3335V2C30 0.895996 30.896 0 32 0C33.104 0 34 0.895996 34 2V43.3335C34 44.4375 33.104 45.3335 32 45.3335Z" fill="#2A71F6"/>
<path d="M32.0005 45.3334C31.4883 45.3334 30.9766 45.1385 30.5869 44.7465L19.9204 34.08C19.1392 33.2987 19.1392 32.0321 19.9204 31.2504C20.7017 30.4691 21.9683 30.4691 22.75 31.2504L32.0029 40.5038L41.2563 31.2504C42.0376 30.4691 43.3047 30.4691 44.0859 31.2504C44.8672 32.0321 44.8672 33.2987 44.0859 34.08L33.4189 44.7465C33.0244 45.1385 32.5127 45.3334 32.0005 45.3334Z" fill="#2A71F6"/>
<path d="M56.6665 63.9999H7.3335C3.28809 63.9999 0 60.7118 0 56.6664V44.6664C0 43.5624 0.895996 42.6664 2 42.6664C3.104 42.6664 4 43.5624 4 44.6664V56.6664C4 58.5038 5.49609 59.9999 7.3335 59.9999H56.6665C58.5039 59.9999 60 58.5038 60 56.6664V44.6664C60 43.5624 60.896 42.6664 62 42.6664C63.104 42.6664 64 43.5624 64 44.6664V56.6664C64 60.7118 60.7119 63.9999 56.6665 63.9999Z" fill="#2A71F6"/>
</svg>
