<svg width="150" height="111" viewBox="0 0 150 111" fill="none" xmlns="http://www.w3.org/2000/svg">
<path d="M45.4845 2.77022e-06H37.7904C35.7701 0.160369 34.0685 1.57277 33.5387 3.52893L0.19589 104.91C-0.187965 106.038 -0.00093272 107.282 0.69763 108.248C1.60598 109.409 3.01868 110.061 4.49156 109.998H4.49755L19.6158 109.981C22.0426 110.076 24.2373 108.548 24.9891 106.238L48.7759 4.88016C49.1136 3.63457 48.8626 2.30294 48.0947 1.26573C47.4652 0.46537 46.5028 -0.0013119 45.4845 2.77022e-06ZM4.35481 104.986C4.40439 105.003 4.45096 105.027 4.49281 105.059L4.49531 107.498L4.35481 104.986ZM20.1835 104.833C20.0072 104.93 19.8095 104.98 19.6085 104.981L5.43154 104.998L38.2884 5.0914C38.2981 5.05979 38.3107 5.02915 38.3261 4.9999H43.6128L20.1835 104.833Z" fill="white"/>
<path d="M94.2749 0H55.7257C53.6603 0.190921 52.0245 1.82721 51.8343 3.89267L35.0621 105.218C34.862 106.36 35.1771 107.532 35.9228 108.42C36.8125 109.434 38.1052 110.003 39.454 109.973L75.0003 109.923L110.55 109.973C111.897 110.001 113.189 109.433 114.077 108.419C114.82 107.538 115.136 106.375 114.942 105.239L98.1626 3.87067C97.9662 1.81339 96.333 0.187367 94.2749 0V0ZM75.0003 4.9999H77.709L78.0067 17.4997H71.9939L72.2916 4.9999H75.0003ZM70.0127 104.882L70.3167 90.024L74.9868 89.9982L79.684 90.0347L79.9892 104.922L70.0127 104.882ZM84.9906 104.937L84.6719 89.4452C84.5379 86.8955 82.3805 84.9264 79.8292 85.0251L74.9868 84.9983L70.1847 85.0251C67.6276 84.923 65.463 86.8945 65.3265 89.45L65.011 104.937L40.172 104.971L56.7474 4.9999H67.2905L66.9767 18.1686C66.9393 19.3393 67.3729 20.4762 68.1804 21.3246C68.8977 22.073 69.8888 22.4972 70.9254 22.4996H79.0752C80.112 22.4973 81.1031 22.0731 81.8204 21.3246C82.6269 20.4779 83.0605 19.3434 83.0241 18.1746L82.7102 4.9999H93.2812L109.831 104.973L84.9906 104.937Z" fill="white"/>
<path d="M130.387 109.981L145.502 109.998H145.507C146.981 110.061 148.394 109.408 149.303 108.246C150.002 107.281 150.188 106.037 149.803 104.909L116.463 3.53018C115.933 1.5735 114.231 0.160646 112.21 3.82476e-06H104.516C103.498 -0.00154134 102.535 0.465163 101.905 1.26573C101.137 2.30348 100.887 3.63553 101.225 4.88141L125.012 106.237C125.764 108.547 127.96 110.076 130.387 109.981ZM111.675 4.9999C111.69 5.02945 111.703 5.06003 111.714 5.0914L144.569 104.998L130.394 104.982C130.193 104.982 129.996 104.931 129.819 104.834L106.389 4.9999H111.675Z" fill="white"/>
<path d="M70.6256 47.4994H79.3754C80.5763 47.5122 81.732 47.0415 82.5821 46.1931C83.3092 45.4569 83.7038 44.4555 83.6746 43.4212L83.3496 31.4157C83.2557 29.1919 81.4006 27.4516 79.1754 27.4998H70.8256C68.5984 27.4517 66.7423 29.1949 66.6507 31.4207L66.3257 43.4174C66.2959 44.4527 66.6906 45.4552 67.4181 46.1924C68.2683 47.0412 69.4243 47.5122 70.6256 47.4994ZM71.6241 32.4997H78.3769L78.6479 42.4995H71.3531L71.6241 32.4997Z" fill="white"/>
<path d="M79.5003 54.9988H70.5005C68.1149 54.9641 66.128 56.8203 66.0006 59.2027L65.6756 73.1942C65.6495 74.2769 66.0661 75.3235 66.8291 76.0921C67.7511 77.007 69.0017 77.5136 70.3005 77.4983H79.7003C80.9988 77.5133 82.249 77.0068 83.1707 76.0921C83.9321 75.3259 84.3486 74.2826 84.3242 73.2027L83.9992 59.1942C83.868 56.8152 81.8827 54.9638 79.5003 54.9988ZM70.6942 72.4947L70.9845 59.9987H79.0163L79.3071 72.4984L70.6942 72.4947Z" fill="white"/>
</svg>
