<svg width="20" height="20" viewBox="0 0 20 20" fill="none" xmlns="http://www.w3.org/2000/svg">
<path d="M2.40025 0C1.1106 0 0.0615234 1.06827 0.0615234 2.38135C0.0615234 3.69444 1.11016 4.76263 2.40025 4.76263C3.69034 4.76263 4.73898 3.69444 4.73898 2.38135C4.73898 1.06827 3.68984 0 2.40025 0Z" fill="white"/>
<path d="M9.96959 0C8.68001 0 7.63086 1.06827 7.63086 2.38135C7.63086 3.69444 8.68001 4.76263 9.96959 4.76263C11.2592 4.76263 12.3085 3.69444 12.3085 2.38135C12.3085 1.06827 11.2597 0 9.96959 0Z" fill="white"/>
<path d="M17.6612 4.76271C18.9506 4.76271 20 3.69451 20 2.38143C20 1.06834 18.9515 0 17.6612 0C16.371 0 15.3225 1.06827 15.3225 2.38135C15.3225 3.69444 16.3718 4.76271 17.6612 4.76271Z" fill="white"/>
<path d="M2.33916 12.3933C3.62875 12.3933 4.67811 11.3253 4.67811 10.012C4.67811 8.69864 3.62875 7.63045 2.33916 7.63045C1.04958 7.63045 0 8.69872 0 10.012C0 11.3253 1.04958 12.3933 2.33916 12.3933Z" fill="white"/>
<path d="M9.90843 12.3933C11.1978 12.3933 12.2472 11.3253 12.2472 10.012C12.2472 8.69864 11.1987 7.63045 9.90843 7.63045C8.61842 7.63045 7.5697 8.69864 7.5697 10.012C7.5697 11.3253 8.61885 12.3933 9.90843 12.3933Z" fill="white"/>
<path d="M17.6008 12.3933C18.8907 12.3933 19.9396 11.3253 19.9396 10.012C19.9396 8.69864 18.8907 7.63045 17.6008 7.63045C16.311 7.63045 15.2612 8.69864 15.2612 10.012C15.2612 11.3253 16.3106 12.3933 17.6008 12.3933Z" fill="white"/>
<path d="M2.39275 15.2374C1.10317 15.2374 0.0535889 16.3053 0.0535889 17.6187C0.0535889 18.9316 1.10317 20 2.39275 20C3.68234 20 4.73141 18.9321 4.73141 17.6187C4.73141 16.3053 3.68234 15.2374 2.39275 15.2374Z" fill="white"/>
<path d="M9.96233 15.2374C8.67268 15.2374 7.62317 16.3053 7.62317 17.6187C7.62317 18.9316 8.67232 20 9.96233 20C11.2517 20 12.301 18.9321 12.301 17.6187C12.301 16.3053 11.2517 15.2374 9.96233 15.2374Z" fill="white"/>
<path d="M17.6538 15.2374C16.3644 15.2374 15.3151 16.3053 15.3151 17.6187C15.3151 18.9316 16.3644 20 17.6538 20C18.9437 20 19.9925 18.9321 19.9925 17.6187C19.9925 16.3053 18.9432 15.2374 17.6538 15.2374Z" fill="white"/>
</svg>
